# xmcd
#
# Track frame offsets:
#	150
#	16327
#	35622
#	50357
#	63245
#	79852
#	94390
#	109622
#	124450
#	142747
#	161285
#	177820
#
# Disc length: 2592
#
# Revision: 1
# Processed by: cddbd v1.5.1PL0 Copyright (c) Steve Scherf et al.
# Submitted via: EasyCDDAExtractor 4.6.0.1
# Normalized: r0:TDELIM( - )
#
DISCID=950a1e0c
DTITLE=Various Artist - Country's Greatest Hits Disc 1
DYEAR=1900
DGENRE=
TTITLE0=The Judds - Change of Heart
TTITLE1=Alabama - You've Got The Touch
TTITLE2=Lorrie Morgan - Out of Your Shoes
TTITLE3=Waylon Jennings and Willie Nelson - Justify To Satisfy You
TTITLE4=Vince Gill - Oklahoma Borderline
TTITLE5=Eddie Rabbitt - I Wanna Dance With You
TTITLE6=Dolly Parton - Tennessee Homesick Blues
TTITLE7=Ronnie Milshap - No Getting Over Me
TTITLE8=Steve Wariner - You Can Dream of Me
TTITLE9=K.T. Olsin - Do Ya'
TTITLE10=Micheal Johnson - Give Me Wings
TTITLE11=Keith Whitley - When You Say Nothing At All
EXTD=
EXTT0=
EXTT1=
EXTT2=
EXTT3=
EXTT4=
EXTT5=
EXTT6=
EXTT7=
EXTT8=
EXTT9=
EXTT10=
EXTT11=
PLAYORDER=
